<?xml version="1.0" standalone="no"?>
<!DOCTYPE svg PUBLIC "-//W3C//DTD SVG 20010904//EN"
 "http://www.w3.org/TR/2001/REC-SVG-20010904/DTD/svg10.dtd">
<svg version="1.0" xmlns="http://www.w3.org/2000/svg"
 width="300.000000pt" height="300.000000pt" viewBox="0 0 300.000000 300.000000"
 preserveAspectRatio="xMidYMid meet">
<metadata>
Created by potrace 1.11, written by Peter Selinger 2001-2013
</metadata>
<g transform="translate(0.000000,300.000000) scale(0.100000,-0.100000)"
fill="#000000" stroke="none">
<path d="M711 2638 c-11 -4 -21 -21 -25 -45 -3 -21 -8 -49 -10 -63 -3 -14 -12
-65 -20 -115 -9 -49 -18 -100 -20 -111 -2 -12 -7 -37 -10 -55 -3 -19 -8 -45
-10 -59 -7 -37 -46 -261 -51 -290 -5 -31 -123 -696 -129 -730 -7 -37 -57 -322
-61 -345 -1 -11 -10 -63 -20 -115 -9 -52 -18 -99 -19 -105 -1 -11 2041 -15
2065 -4 9 5 16 22 17 41 1 18 6 48 11 66 5 17 7 33 3 33 -4 1 -434 2 -957 4
-522 1 -954 3 -958 4 -5 0 -6 9 -3 19 3 9 7 28 10 42 2 14 9 52 15 85 6 33 13
76 16 95 3 19 12 71 20 115 8 44 17 94 20 110 2 17 32 183 65 370 33 187 63
354 65 370 19 110 78 439 88 484 l12 55 962 -1 c730 0 963 3 967 12 2 7 7 37
11 68 4 31 8 60 9 63 1 8 -2040 11 -2063 2z"/>
<path d="M943 2398 c-2 -5 -2 -8 1 -8 2 0 -2 -27 -10 -61 -8 -33 -12 -64 -10
-67 2 -4 430 -7 950 -7 520 0 946 -1 946 -3 0 -3 -68 -393 -84 -482 -3 -14 -7
-41 -10 -60 -3 -19 -10 -60 -16 -90 -6 -30 -12 -66 -15 -80 -2 -14 -21 -117
-40 -230 -20 -113 -45 -254 -56 -315 -11 -60 -22 -126 -24 -145 -3 -19 -10
-55 -15 -80 -5 -25 -17 -88 -25 -140 -9 -52 -18 -102 -20 -110 -4 -13 -142
-15 -1164 -15 -638 1 -1163 3 -1166 6 -3 3 3 57 14 120 26 153 86 488 111 624
11 61 20 113 20 118 0 9 -150 9 -151 0 0 -5 -2 -15 -4 -23 -3 -13 -15 -84 -31
-175 -2 -11 -5 -32 -8 -48 -3 -15 -10 -53 -16 -85 -6 -31 -12 -67 -14 -78 -2
-12 -7 -39 -10 -60 -4 -22 -11 -64 -16 -94 -13 -73 -16 -89 -34 -195 -9 -49
-18 -101 -21 -115 -3 -14 -7 -38 -10 -55 -3 -16 -8 -42 -11 -58 -5 -25 -3 -27
28 -28 189 -3 2600 0 2604 3 3 4 58 301 69 373 1 11 15 88 30 170 14 83 29
164 32 180 2 17 20 116 38 220 19 105 36 206 40 225 3 19 10 58 15 85 5 28 12
66 15 85 3 19 20 112 36 205 17 94 32 182 34 196 2 14 11 64 20 110 9 46 18
98 20 114 3 17 7 41 10 55 l5 25 -1026 0 c-564 0 -1028 -3 -1031 -7z"/>
</g>
</svg>
