<svg version="1" xmlns="http://www.w3.org/2000/svg" viewBox="0 0 300 300">
  <path d="M71.1 36.2c-1.1.4-2.1 2.1-2.5 4.5-.3 2.1-.8 4.9-1 6.3-.3 1.4-1.2 6.5-2 11.5-.9 4.9-1.8 10-2 11.1-.2 1.2-.7 3.7-1 5.5-.3 1.9-.8 4.5-1 5.9-.7 3.7-4.6 26.1-5.1 29-.5 3.1-12.3 69.6-12.9 73-.7 3.7-5.7 32.2-6.1 34.5-.1 1.1-1 6.3-2 11.5-.9 5.2-1.8 9.9-1.9 10.5-.1 1.1 204.1 1.5 206.5.4.9-.5 1.6-2.2 1.7-4.1.1-1.8.6-4.8 1.1-6.6.5-1.7.7-3.3.3-3.3-.4-.1-43.4-.2-95.7-.4-52.2-.1-95.4-.3-95.8-.4-.5 0-.6-.9-.3-1.9.3-.9.7-2.8 1-4.2.2-1.4.9-5.2 1.5-8.5s1.3-7.6 1.6-9.5c.3-1.9 1.2-7.1 2-11.5s1.7-9.4 2-11c.2-1.7 3.2-18.3 6.5-37s6.3-35.4 6.5-37c1.9-11 7.8-43.9 8.8-48.4l1.2-5.5 96.2.1c73 0 96.3-.3 96.7-1.2.2-.7.7-3.7 1.1-6.8.4-3.1.8-6 .9-6.3.1-.8-204-1.1-206.3-.2z"/>
  <path d="M94.3 60.2c-.2.5-.2.8.1.8.2 0-.2 2.7-1 6.1-.8 3.3-1.2 6.4-1 6.7.2.4 43 .7 95 .7s94.6.1 94.6.3c0 .3-6.8 39.3-8.4 48.2-.3 1.4-.7 4.1-1 6-.3 1.9-1 6-1.6 9-.6 3-1.2 6.6-1.5 8-.2 1.4-2.1 11.7-4 23-2 11.3-4.5 25.4-5.6 31.5-1.1 6-2.2 12.6-2.4 14.5-.3 1.9-1 5.5-1.5 8s-1.7 8.8-2.5 14c-.9 5.2-1.8 10.2-2 11-.4 1.3-14.2 1.5-116.4 1.5-63.8-.1-116.3-.3-116.6-.6-.3-.3.3-5.7 1.4-12 2.6-15.3 8.6-48.8 11.1-62.4 1.1-6.1 2-11.3 2-11.8 0-.9-15-.9-15.1 0 0 .5-.2 1.5-.4 2.3-.3 1.3-1.5 8.4-3.1 17.5-.2 1.1-.5 3.2-.8 4.8-.3 1.5-1 5.3-1.6 8.5-.6 3.1-1.2 6.7-1.4 7.8-.2 1.2-.7 3.9-1 6-.4 2.2-1.1 6.4-1.6 9.4-1.3 7.3-1.6 8.9-3.4 19.5-.9 4.9-1.8 10.1-2.1 11.5-.3 1.4-.7 3.8-1 5.5-.3 1.6-.8 4.2-1.1 5.8-.5 2.5-.3 2.7 2.8 2.8 18.9.3 260 0 260.4-.3.3-.4 5.8-30.1 6.9-37.3.1-1.1 1.5-8.8 3-17 1.4-8.3 2.9-16.4 3.2-18 .2-1.7 2-11.6 3.8-22 1.9-10.5 3.6-20.6 4-22.5.3-1.9 1-5.8 1.5-8.5.5-2.8 1.2-6.6 1.5-8.5.3-1.9 2-11.2 3.6-20.5 1.7-9.4 3.2-18.2 3.4-19.6.2-1.4 1.1-6.4 2-11 .9-4.6 1.8-9.8 2-11.4.3-1.7.7-4.1 1-5.5l.5-2.5H197.4c-56.4 0-102.8.3-103.1.7z"/>
</svg>
